# xmcd
#
# Track frame offsets: 
#        150
#        32250
#        65671
#        110015
#        146350
#        202322
#
# Disc length: 3342 seconds
#
# Revision: 0
# Processed by: cddbd v1.5.2PL0 Copyright (c) Steve Scherf et al.
# Submitted via: ExactAudioCopy v0.99pb5
#
DISCID=560d0c06
DTITLE=Van Der Graaf Generator  - Still Life 1976 (Remastered)
DYEAR=1900
DGENRE=
TTITLE0=Pilgrims
TTITLE1=Still Life
TTITLE2=La Rossa
TTITLE3=My Room (Waiting For Wonderland)
TTITLE4=Childlike Faith In Childhood's End
TTITLE5=Gog (bonus)
EXTD=
EXTT0=
EXTT1=
EXTT2=
EXTT3=
EXTT4=
EXTT5=
PLAYORDER=
